# This file uses centimeters as units for non-parametric coordinates.

mtllib pisoUvs.mtl
g default
v 382.400970 -0.000000 124.375999
v -81.636086 0.000000 -1779.025024
v 360.061371 0.000000 -1779.025024
v 370.818848 0.000000 -923.665833
v -66.099419 0.000000 -956.757141
v 360.061371 0.000000 -1450.411621
v -81.636086 0.000000 -1450.348389
v 521.076904 -0.000000 -1450.411621
v -81.636086 0.000000 -1309.165405
v 360.061371 0.000000 -1309.211060
v 521.076904 -0.000000 -1309.211060
v -103.237389 0.000000 -1309.165405
v -103.237389 0.000000 -1450.348389
v -53.370716 0.000000 -1079.586426
v 364.033173 0.000000 -1036.263184
v 40.361584 0.000000 -1309.177368
v 40.361584 0.000000 -1450.364868
v 40.361584 0.000000 -1779.025024
v 69.168091 0.000000 -1309.180542
v 69.168091 0.000000 -1450.368896
v 69.168091 0.000000 -1779.025024
v 40.372414 -0.000000 -1200.803101
v 69.178917 -0.000000 -1200.805908
v -48.818851 -0.000000 -7.255396
v 382.400970 -0.000000 -7.255396
v -48.818851 -0.000000 -67.956802
v 382.400970 -0.000000 -67.956802
v -48.818851 -0.000000 -381.251953
v 382.400970 -0.000000 -381.251953
v 13.518071 -0.000000 -7.255396
v 13.518071 -0.000000 -67.956802
v 13.518071 -0.000000 -381.251953
v 87.667221 0.000000 -941.133484
v 83.115379 0.000000 -1079.588501
v 217.848785 -0.000000 124.375999
v 217.848785 -0.000000 -7.255396
v 172.791779 -0.000000 -67.956802
v 90.219376 -0.000000 -532.473328
v 112.956451 -0.000000 -679.502686
v 184.508240 -0.000000 -542.801819
v 199.018219 -0.000000 -668.845215
v -232.910522 -0.000000 -381.251953
v -232.910522 0.000000 -941.133484
v 521.076904 -0.000000 -931.601318
v 521.076904 -0.000000 -1032.302734
v 66.582474 -0.000000 -608.698242
v -0.789265 -0.000000 -636.052734
v -56.886848 -0.000000 -649.945251
v -232.910522 0.000000 -642.650818
v 218.954544 -0.000000 -597.909729
v 376.683289 -0.000000 -649.022400
v 141.222595 -0.000000 -686.007874
v 234.474182 0.000000 -932.077026
v 228.764145 0.000000 -1057.125488
v 129.024872 -0.000000 -524.700623
v 170.237793 -0.000000 -381.251953
v -48.818851 -0.000000 -226.659027
v 13.518071 -0.000000 -226.659027
v 107.377869 -0.000000 -7.255396
v 86.680824 -0.000000 -67.956802
v 217.848785 -0.000000 68.760223
v 382.400970 -0.000000 68.760223
v 291.878937 -0.000000 124.375992
v 291.878937 -0.000000 68.760223
v 291.878937 -0.000000 -7.255396
v 267.092560 -0.000000 -67.956802
v 58.705086 -0.000000 -563.973572
v 0.990576 -0.000000 -521.142456
v -52.851452 -0.000000 -515.552002
v -232.910522 0.000000 -511.906067
v 83.424232 0.000000 -651.256042
v 23.565693 -0.000000 -756.699158
v -61.542198 -0.000000 -804.985229
v -232.910522 0.000000 -793.481812
v 189.379120 0.000000 -813.081665
v 131.113205 0.000000 -813.247375
v 69.587494 -0.000000 -709.069275
v 44.113842 -0.000000 -619.821045
v 34.889782 -0.000000 -535.074036
v 28.117409 -0.000000 -442.324829
v 143.978043 -0.000000 -442.489960
v 300.827209 -0.000000 -442.713562
v 300.408020 -0.000000 -624.305054
v 299.978088 0.000000 -810.557617
v 521.076904 -0.000000 -978.633911
v 367.649597 0.000000 -976.254395
v 231.807312 0.000000 -990.480957
v 85.541275 0.000000 -1005.798950
v -60.154476 0.000000 -1014.124573
v 437.833893 0.000000 -1450.411621
v 437.833893 0.000000 -1309.211060
v 439.887268 -0.000000 -1034.350220
v 441.756897 -0.000000 -977.403748
v 443.395386 -0.000000 -927.498779
v 521.076904 -0.000000 -1373.341553
v 437.833893 0.000000 -1373.341553
v 360.061401 0.000000 -1373.341553
v 69.168091 0.000000 -1373.305420
v 40.361584 0.000000 -1373.302002
v -81.636093 0.000000 -1373.287964
v -103.237389 0.000000 -1373.287964
v 198.566910 0.000000 -1309.194092
v 198.566910 0.000000 -1373.321533
v 198.566895 0.000000 -1450.387939
v 198.566910 0.000000 -1779.025024
v -81.636086 0.000000 -1622.901123
v 40.361584 0.000000 -1622.908936
v 69.168091 0.000000 -1622.910889
v 198.566910 0.000000 -1622.919922
v 360.061371 0.000000 -1622.931152
vt 0.182935 0.199184
vt 0.244245 0.199184
vt 0.231924 0.253686
vt 0.178968 0.251508
vt 0.150658 0.585685
vt 0.150658 0.560703
vt 0.270647 0.560708
vt 0.270647 0.585691
vt 0.150658 0.682936
vt 0.270647 0.682939
vt 0.270647 0.743762
vt 0.150658 0.743762
vt 0.661575 0.585706
vt 0.661575 0.560721
vt 0.743447 0.560721
vt 0.743447 0.585706
vt 0.129412 0.585685
vt 0.129412 0.560703
vt 0.171786 0.445754
vt 0.165939 0.423403
vt 0.317173 0.417316
vt 0.315082 0.442510
vt 0.298979 0.560709
vt 0.298979 0.585692
vt 0.298979 0.682940
vt 0.298979 0.743762
vt 0.426247 0.560714
vt 0.426247 0.585698
vt 0.426247 0.682943
vt 0.426247 0.743762
vt 0.270657 0.518485
vt 0.298990 0.518486
vt 0.182935 0.053473
vt 0.244245 0.053473
vt 0.244245 0.077123
vt 0.182935 0.077123
vt 0.182935 0.138954
vt 0.244245 0.138954
vt 0.336560 0.053473
vt 0.316203 0.077123
vt 0.458940 0.436542
vt 0.461563 0.413788
vt 0.445212 0.023857
vt 0.518023 0.023857
vt 0.518023 0.053473
vt 0.445212 0.053473
vt 0.400896 0.077123
vt 0.493645 0.077123
vt 0.265265 0.259114
vt 0.258604 0.222978
vt 0.319684 0.258100
vt 0.288688 0.270373
vt 0.372557 0.223043
vt 0.526824 0.223130
vt 0.412420 0.262124
vt 0.357850 0.255072
vt 0.526411 0.293879
vt 0.525989 0.366443
vt 0.426691 0.311232
vt 0.446299 0.283595
vt 0.417211 0.367427
vt 0.359904 0.367491
vt 0.342046 0.315384
vt 0.369847 0.317918
vt 0.001874 0.250087
vt 0.001874 0.199184
vt 0.743447 0.431927
vt 0.665433 0.431447
vt 0.667045 0.412004
vt 0.743447 0.413602
vt 0.663594 0.453634
vt 0.743447 0.452836
vt 0.299391 0.326903
vt 0.274337 0.292132
vt 0.296436 0.287798
vt 0.313000 0.304379
vt 0.174999 0.303868
vt 0.230173 0.298455
vt 0.254127 0.345460
vt 0.170421 0.364272
vt 0.001874 0.301026
vt 0.001874 0.359790
vt 0.592546 0.430999
vt 0.595663 0.410511
vt 0.445212 0.002189
vt 0.518023 0.002189
vt 0.607054 0.002189
vt 0.607054 0.023857
vt 0.607054 0.053473
vt 0.607054 0.077123
vt 0.001874 0.417316
vt 0.398384 0.199184
vt 0.607054 0.199184
vt 0.601431 0.303508
vt 0.588989 0.454379
vt 0.455947 0.462507
vt 0.312697 0.471259
vt 0.178458 0.471258
vt 0.585083 0.585706
vt 0.585083 0.560721
vt 0.661575 0.615733
vt 0.743447 0.615733
vt 0.585083 0.615733
vt 0.298979 0.615717
vt 0.426247 0.615724
vt 0.270647 0.615715
vt 0.150658 0.615708
vt 0.129412 0.615708
vt 0.585083 0.682948
vt 0.585083 0.743762
vn 0.000000 1.000000 0.000000
vn -0.000000 1.000000 0.000000
vn -0.000000 1.000000 0.000000
vn 0.000000 1.000000 0.000000
vn 0.000000 1.000000 0.000000
vn 0.000000 1.000000 0.000000
vn 0.000000 1.000000 0.000000
vn 0.000000 1.000000 0.000000
vn 0.000000 1.000000 0.000000
vn 0.000000 1.000000 0.000000
vn 0.000000 1.000000 0.000000
vn 0.000000 1.000000 0.000000
vn 0.000000 1.000000 0.000000
vn 0.000000 1.000000 0.000000
vn 0.000000 1.000000 0.000000
vn 0.000000 1.000000 0.000000
vn 0.000000 1.000000 0.000000
vn 0.000000 1.000000 0.000000
vn -0.000000 1.000000 0.000000
vn 0.000000 1.000000 0.000000
vn -0.000000 1.000000 0.000000
vn -0.000000 1.000000 0.000000
vn 0.000000 1.000000 0.000000
vn 0.000000 1.000000 0.000000
vn 0.000000 1.000000 0.000000
vn 0.000000 1.000000 0.000000
vn 0.000000 1.000000 0.000000
vn 0.000000 1.000000 0.000000
vn 0.000000 1.000000 0.000000
vn 0.000000 1.000000 0.000000
vn 0.000000 1.000000 0.000000
vn 0.000000 1.000000 0.000000
vn -0.000000 1.000000 0.000000
vn -0.000000 1.000000 0.000000
vn -0.000000 1.000000 0.000000
vn -0.000000 1.000000 0.000000
vn -0.000000 1.000000 0.000000
vn -0.000000 1.000000 0.000000
vn 0.000000 1.000000 0.000000
vn 0.000000 1.000000 0.000000
vn -0.000000 1.000000 0.000000
vn -0.000000 1.000000 0.000000
vn 0.000000 1.000000 0.000000
vn 0.000000 1.000000 0.000000
vn 0.000000 1.000000 0.000000
vn 0.000000 1.000000 0.000000
vn 0.000000 1.000000 0.000000
vn 0.000000 1.000000 0.000000
vn -0.000000 1.000000 0.000000
vn -0.000000 1.000000 0.000000
vn 0.000000 1.000000 0.000000
vn 0.000000 1.000000 0.000000
vn 0.000000 1.000000 0.000000
vn 0.000000 1.000000 0.000000
vn -0.000000 1.000000 0.000000
vn 0.000000 1.000000 0.000000
vn 0.000000 1.000000 0.000000
vn 0.000000 1.000000 0.000000
vn 0.000000 1.000000 0.000000
vn 0.000000 1.000000 0.000000
vn -0.000000 1.000000 0.000000
vn 0.000000 1.000000 -0.000000
vn 0.000000 1.000000 -0.000000
vn -0.000000 1.000000 0.000000
vn 0.000000 1.000000 0.000000
vn 0.000000 1.000000 0.000000
vn 0.000000 1.000000 0.000000
vn 0.000000 1.000000 0.000000
vn 0.000000 1.000000 0.000000
vn 0.000000 1.000000 0.000000
vn 0.000000 1.000000 0.000000
vn 0.000000 1.000000 0.000000
vn -0.000000 1.000000 -0.000000
vn -0.000000 1.000000 -0.000000
vn -0.000000 1.000000 -0.000000
vn -0.000000 1.000000 -0.000000
vn 0.000000 1.000000 0.000000
vn -0.000000 1.000000 0.000000
vn -0.000000 1.000000 0.000000
vn 0.000000 1.000000 0.000000
vn 0.000000 1.000000 0.000000
vn 0.000000 1.000000 0.000000
vn -0.000000 1.000000 0.000000
vn 0.000000 1.000000 0.000000
vn 0.000000 1.000000 0.000000
vn 0.000000 1.000000 0.000000
vn -0.000000 1.000000 0.000000
vn -0.000000 1.000000 0.000000
vn 0.000000 1.000000 0.000000
vn 0.000000 1.000000 0.000000
vn -0.000000 1.000000 0.000000
vn -0.000000 1.000000 0.000000
vn 0.000000 1.000000 -0.000000
vn 0.000000 1.000000 -0.000000
vn 0.000000 1.000000 0.000000
vn 0.000000 1.000000 0.000000
vn 0.000000 1.000000 0.000000
vn 0.000000 1.000000 0.000000
vn -0.000000 1.000000 0.000000
vn -0.000000 1.000000 0.000000
vn -0.000000 1.000000 0.000000
vn -0.000000 1.000000 0.000000
vn 0.000000 1.000000 0.000000
vn 0.000000 1.000000 0.000000
vn 0.000000 1.000000 0.000000
vn 0.000000 1.000000 0.000000
vn 0.000000 1.000000 0.000000
vn 0.000000 1.000000 0.000000
vn 0.000000 1.000000 0.000000
vn 0.000000 1.000000 0.000000
vn 0.000000 1.000000 0.000000
vn 0.000000 1.000000 0.000000
vn 0.000000 1.000000 0.000000
vn 0.000000 1.000000 0.000000
vn 0.000000 1.000000 0.000000
vn 0.000000 1.000000 0.000000
vn 0.000000 1.000000 0.000000
s 1
g polySurface37 polySurface19
usemtl texturedFacets31
f 28/1/1 32/2/2 68/3/3 69/4/4
s 2
f 100/5/5 9/6/6 16/7/7 99/8/8
f 106/9/9 107/10/10 18/11/11 2/12/12
f 96/13/13 91/14/14 11/15/15 95/16/16
f 9/6/6 100/5/5 101/17/17 12/18/18
s 1
f 89/19/19 5/20/20 33/21/21 88/22/22
s 2
f 99/8/8 16/7/7 19/23/23 98/24/24
f 18/11/11 107/10/10 108/25/25 21/26/26
f 98/24/24 19/23/23 102/27/27 103/28/28
f 21/26/26 108/25/25 109/29/29 105/30/30
f 19/23/23 16/7/7 22/31/31 23/32/32
s 1
f 24/33/33 30/34/34 31/35/35 26/36/36
f 57/37/37 58/38/38 32/2/2 28/1/1
f 31/35/35 30/34/34 59/39/39 60/40/40
f 87/41/41 88/22/22 33/21/21 53/42/42
f 61/43/43 64/44/44 65/45/45 36/46/46
f 37/47/47 36/46/46 65/45/45 66/48/48
f 79/49/49 80/50/50 38/51/51 67/52/52
f 81/53/53 82/54/54 40/55/55 55/56/56
f 83/57/57 84/58/58 41/59/59 50/60/60
f 75/61/61 76/62/62 39/63/63 52/64/64
f 28/1/1 69/4/4 70/65/65 42/66/66
s 2
f 85/67/67 93/68/68 94/69/69 44/70/70
f 11/15/15 91/14/14 92/71/71 45/72/72
s 1
f 77/73/73 78/74/74 46/75/75 71/76/76
f 48/77/77 47/78/78 72/79/79 73/80/80
f 49/81/81 48/77/77 73/80/80 74/82/82
f 82/54/54 83/57/57 50/60/60 40/55/55
f 84/58/58 75/61/61 52/64/64 41/59/59
f 86/83/83 87/41/41 53/42/42 4/84/84
f 80/50/50 81/53/53 55/56/56 38/51/51
f 26/36/36 31/35/35 58/38/38 57/37/37
f 60/40/40 59/39/39 36/46/46 37/47/47
f 35/85/85 63/86/86 64/44/44 61/43/43
f 63/86/86 1/87/87 62/88/88 64/44/44
f 65/45/45 64/44/44 62/88/88 25/89/89
f 66/48/48 65/45/45 25/89/89 27/90/90
f 78/74/91 79/49/49 67/52/52 46/75/92
f 69/4/4 68/3/3 47/78/78 48/77/77
f 70/65/65 69/4/4 48/77/77 49/81/81
f 76/62/62 77/73/93 71/76/94 39/63/63
f 73/80/80 72/79/79 33/21/21 5/20/20
f 74/82/82 73/80/80 5/20/20 43/91/95
f 53/42/42 33/21/21 76/62/62 75/61/61
f 33/21/21 72/79/79 77/73/93 76/62/62
f 72/79/79 47/78/78 78/74/74 77/73/73
f 47/78/78 68/3/3 79/49/49 78/74/91
f 68/3/3 32/2/2 80/50/50 79/49/49
f 32/2/2 56/92/96 81/53/53 80/50/50
f 56/92/96 29/93/97 82/54/54 81/53/53
f 29/93/97 51/94/98 83/57/57 82/54/54
f 51/94/98 4/84/84 84/58/58 83/57/57
f 4/84/84 53/42/42 75/61/61 84/58/58
s 2
f 45/72/72 92/71/71 93/68/68 85/67/67
s 1
f 15/95/99 54/96/100 87/41/41 86/83/83
f 54/96/100 34/97/101 88/22/22 87/41/41
f 14/98/102 89/19/19 88/22/22 34/97/101
s 2
f 97/99/103 10/100/104 91/14/14 96/13/13
f 92/71/71 91/14/14 10/100/104 15/95/105
f 93/68/68 92/71/71 15/95/105 86/83/106
f 94/69/69 93/68/68 86/83/106 4/84/107
f 90/101/108 96/13/13 95/16/16 8/102/109
f 6/103/110 97/99/103 96/13/13 90/101/108
f 20/104/111 98/24/24 103/28/28 104/105/112
f 17/106/113 99/8/8 98/24/24 20/104/111
f 7/107/114 100/5/5 99/8/8 17/106/113
f 101/17/17 100/5/5 7/107/114 13/108/115
f 103/28/28 102/27/27 10/100/104 97/99/103
f 104/105/112 103/28/28 97/99/103 6/103/110
f 105/30/30 109/29/29 110/109/116 3/110/117
f 7/107/114 17/106/113 107/10/10 106/9/9
f 108/25/25 107/10/10 17/106/113 20/104/111
f 109/29/29 108/25/25 20/104/111 104/105/112
f 110/109/116 109/29/29 104/105/112 6/103/110
