# This file uses centimeters as units for non-parametric coordinates.

mtllib salidas.mtl
g default
v 34.027225 152.555771 -1067.102295
v 34.027222 51.655560 -1067.102295
v 34.027225 19.428230 -1067.102295
v 34.027225 -0.005332 -1067.102295
v 34.027225 26.127214 -1067.102295
v 27.966583 152.567139 -1105.662354
v 27.966583 -3.883924 -1105.662354
v -44.275341 152.555771 -1060.379761
v -44.275341 51.655560 -1060.379761
v -44.275341 19.428230 -1060.379761
v -44.275341 -0.005332 -1060.379761
v -44.275341 26.127214 -1060.379761
v -76.383621 152.567139 -1082.575928
v -76.383621 -3.883924 -1082.575928
v -28.420351 51.617641 -1062.262451
v -28.420351 26.089300 -1062.262451
v -36.072018 26.107599 -1059.328735
v -41.378162 21.586069 -1059.328735
v -36.544331 107.691742 -1060.133667
v -36.544331 53.073895 -1060.133667
v -44.275337 9.718202 -1060.379639
v 34.027222 9.718202 -1067.102295
v 34.027222 74.497375 -1067.102295
v -44.275341 74.497375 -1060.379761
v -36.544331 75.915710 -1060.133667
v 27.966583 46.343582 -1105.662354
v -76.383621 46.343582 -1082.575928
v -36.713531 25.560947 -1059.328735
v -44.275345 25.317307 -1060.379761
v 34.027225 25.317307 -1067.102295
v -36.544331 90.942154 -1060.133667
v -44.275341 111.410110 -1060.379761
v 34.027222 111.410110 -1067.102295
v 42.892063 51.655560 -1032.295410
v 42.892067 74.497375 -1032.295410
v 42.892067 9.718202 -1032.295410
v 42.892067 19.428230 -1032.295410
v 42.892067 25.317307 -1032.295410
v 42.892067 26.127214 -1032.295410
v 42.892067 152.555771 -1032.295410
v 36.831425 152.567139 -1070.855469
v 36.831425 46.343582 -1070.855469
v 42.892067 -0.005332 -1032.295410
v 42.892067 111.410110 -1032.295410
v 36.831425 -3.883924 -1070.855469
vt 0.715848 0.843644
vt 0.724563 0.842113
vt 0.724563 0.853101
vt 0.715848 0.849564
vt 0.699848 0.843146
vt 0.703553 0.843245
vt 0.703553 0.850487
vt 0.699848 0.850714
vt 0.705800 0.843473
vt 0.706109 0.842969
vt 0.706109 0.851123
vt 0.705799 0.849961
vt 0.939069 0.988080
vt 0.939484 0.994529
vt 0.933063 0.995485
vt 0.939364 0.993920
vt 0.033185 0.989330
vt 0.033411 0.992839
vt 0.031777 0.993148
vt 0.030114 0.988355
vt 0.724563 0.899846
vt 0.715848 0.900228
vt 0.703553 0.901328
vt 0.699848 0.901199
vt 0.706109 0.900966
vt 0.705799 0.901628
vt 0.080863 0.989330
vt 0.081279 0.995779
vt 0.073264 0.994457
vt 0.075029 0.992560
vt 0.853249 0.989310
vt 0.853475 0.992819
vt 0.847790 0.993845
vt 0.847454 0.988977
vt 0.688836 0.757143
vt 0.689223 0.774088
vt 0.688967 0.772956
vt 0.688968 0.758092
vt 0.688738 0.756470
vt 0.688106 0.756330
vt 0.688130 0.756726
vt 0.689669 0.789358
vt 0.688127 0.790306
vt 0.688216 0.775855
vt 0.694421 0.850140
vt 0.693500 0.901525
vt 0.697059 0.843395
vt 0.738647 0.854185
vt 0.738647 0.841644
vt 0.753425 0.842590
vt 0.756062 0.852000
vt 0.738647 0.899232
vt 0.756983 0.900471
vt 0.688193 0.800355
vt 0.689983 0.814042
vt 0.688852 0.841134
vt 0.687863 0.811409
vt 0.032314 0.996830
vt 0.028563 0.997072
vt 0.853645 0.995807
vt 0.847240 0.996220
vt 0.688741 0.752235
vt 0.688121 0.754144
vn -0.969065 -0.000000 0.246808
vn -0.969064 0.000000 0.246808
vn -0.969064 0.000000 0.246808
vn -0.969065 -0.000000 0.246808
vn -0.969064 -0.000000 0.246808
vn -0.969064 0.000000 0.246808
vn -0.969064 0.000000 0.246808
vn -0.969064 -0.000000 0.246808
vn -0.969064 0.000000 0.246808
vn -0.969065 -0.000000 0.246808
vn -0.969065 -0.000000 0.246808
vn -0.969064 0.000000 0.246808
vn -0.003023 0.999995 0.000771
vn -0.003023 0.999995 0.000771
vn 0.000047 1.000000 0.000341
vn -0.000191 1.000000 0.000374
vn 0.969065 0.000000 -0.246808
vn 0.969065 0.000000 -0.246808
vn 0.969065 0.000000 -0.246808
vn 0.969065 0.000000 -0.246808
vn 0.085539 0.000000 0.996335
vn 0.085539 0.000000 0.996335
vn 0.085539 0.000000 0.996335
vn 0.085539 0.000000 0.996335
vn 0.085540 -0.000000 0.996335
vn 0.085540 0.000004 0.996335
vn 0.085540 0.000004 0.996335
vn 0.085540 -0.000000 0.996335
vn 0.085538 0.000000 0.996335
vn 0.085539 0.000000 0.996335
vn 0.085539 -0.000000 0.996335
vn 0.085538 0.000000 0.996335
vn 0.000055 1.000000 0.000339
vn 0.000055 1.000000 0.000339
vn -0.216017 0.000000 -0.976390
vn -0.216017 0.000000 -0.976390
vn -0.216017 0.000000 -0.976390
vn -0.216017 0.000000 -0.976390
vn -0.117920 0.000000 -0.993023
vn -0.117920 0.000000 -0.993023
vn -0.117920 0.000000 -0.993023
vn -0.117920 0.000000 -0.993023
vn 0.203536 -0.096252 -0.974325
vn 0.132777 -0.062793 -0.989155
vn 0.132777 -0.062793 -0.989155
vn 0.180437 -0.085330 -0.979878
vn 0.031813 0.000000 -0.999494
vn 0.031804 0.000000 -0.999494
vn 0.031802 0.000000 -0.999494
vn 0.031813 0.000000 -0.999494
vn 0.085540 -0.000006 0.996335
vn 0.085540 -0.000006 0.996335
vn -0.969064 -0.000000 0.246808
vn -0.969064 -0.000000 0.246808
vn -0.969064 0.000000 0.246808
vn -0.969064 0.000000 0.246808
vn -0.969065 0.000000 0.246808
vn -0.969065 0.000000 0.246808
vn 0.085539 -0.000000 0.996335
vn 0.085539 -0.000000 0.996335
vn 0.085538 -0.000000 0.996335
vn 0.085538 -0.000000 0.996335
vn 0.031799 0.000000 -0.999494
vn 0.031826 0.000000 -0.999493
vn 0.031830 0.000000 -0.999493
vn 0.031830 0.000000 -0.999493
vn 0.969064 0.000000 -0.246808
vn 0.969064 0.000000 -0.246808
vn -0.216016 0.000000 -0.976390
vn -0.216016 0.000000 -0.976390
vn 0.218759 -0.103451 -0.970280
vn 0.218759 -0.103451 -0.970280
s 1
g polySurface231 group31 group32 group29
usemtl lambert5SG
f 34/1/1 35/2/2 23/3/3 2/4/4
f 36/5/5 37/6/6 3/7/7 22/8/8
f 38/9/9 39/10/10 5/11/11 30/12/12
f 39/10/10 34/1/1 2/4/4 5/11/11
s 3
f 40/13/13 41/14/14 6/15/15 1/16/16
s 4
f 41/17/17 42/18/18 26/19/19 6/20/20
s 5
f 2/4/21 23/3/22 24/21/23 9/22/24
f 22/8/25 3/7/26 10/23/27 21/24/28
f 30/12/29 5/11/30 12/25/31 29/26/32
f 5/11/30 2/4/21 9/22/24 12/25/31
s 3
f 1/27/16 6/28/15 13/29/33 8/30/34
s 7
f 6/31/35 26/32/36 27/33/37 13/34/38
s off
f 12/35/39 9/36/40 15/37/41 16/38/42
s 8
f 29/39/43 12/35/44 17/40/45 28/41/46
s 9
f 9/36/47 24/42/48 25/43/49 20/44/50
s 5
f 4/45/51 22/8/25 21/24/28 11/46/52
s 1
f 43/47/53 36/5/5 22/8/8 4/45/54
f 33/48/55 44/49/56 40/50/57 1/51/58
s 5
f 32/52/59 33/48/60 1/51/61 8/53/62
s 9
f 31/54/63 32/55/64 8/56/65 19/57/66
s 4
f 26/19/19 42/18/18 45/58/67 7/59/68
s 7
f 27/33/37 26/32/36 7/60/69 14/61/70
s 8
f 10/62/71 29/39/43 28/41/46 18/63/72
s 5
f 3/7/26 30/12/29 29/26/32 10/23/27
s 1
f 37/6/6 38/9/9 30/12/12 3/7/7
s 9
f 25/43/49 24/42/48 32/55/64 31/54/63
s 5
f 24/21/23 23/3/22 33/48/60 32/52/59
s 1
f 23/3/3 35/2/2 44/49/56 33/48/55
g default
v -187.280685 152.555740 -704.715576
v -187.280685 -0.005334 -704.715576
v -187.280685 19.428221 -704.715576
v -187.280685 26.127205 -704.715576
v -187.280685 51.655537 -704.715576
v -187.709427 152.555740 -686.130249
v -187.709427 43.334900 -686.130249
v -207.037018 151.245071 -704.715576
v -205.880249 151.245071 -688.435303
v -208.645874 44.719097 -688.388550
v -207.037018 -0.179068 -704.715576
v -187.280685 9.718196 -704.715576
v -187.280701 74.497353 -704.715576
v -207.037018 47.756592 -704.715576
v -207.384979 93.285835 -688.409912
v -187.709427 93.130264 -686.130249
v -187.280685 25.317297 -704.715576
v -187.280701 111.410080 -704.715576
v -187.280685 51.655537 -824.700806
v -187.280701 74.497353 -824.700806
v -187.280685 9.718197 -824.700806
v -187.280685 19.428221 -824.700806
v -187.280685 25.317297 -824.700806
v -187.280685 26.127205 -824.700806
v -187.280685 152.555740 -824.700806
v -207.037018 152.555740 -844.457153
v -207.037018 46.332184 -844.457153
v -187.280685 -0.005333 -824.700806
v -187.280701 111.410080 -824.700806
v -207.037018 -3.895323 -844.457153
vt 0.722840 0.544378
vt 0.721417 0.561511
vt 0.609835 0.561511
vt 0.608411 0.544378
vt 0.722377 0.512923
vt 0.722469 0.520206
vt 0.608783 0.520206
vt 0.608874 0.512923
vt 0.722681 0.524622
vt 0.722213 0.525231
vt 0.609039 0.525231
vt 0.608571 0.524622
vt 0.530947 0.963410
vt 0.531363 0.969858
vt 0.529702 0.971558
vt 0.530053 0.962802
vt 0.068693 0.965732
vt 0.075142 0.965316
vt 0.075325 0.972220
vt 0.069672 0.971984
vt 0.060074 0.968678
vt 0.057584 0.973284
vt 0.056774 0.973236
vt 0.053626 0.969094
vt 0.215542 0.970022
vt 0.221991 0.969606
vt 0.222136 0.973673
vt 0.215887 0.974096
vt 0.235341 0.970252
vt 0.235756 0.976701
vt 0.230429 0.973167
vt 0.232747 0.973019
vt 0.722609 0.502771
vt 0.608643 0.502771
vt 0.610271 0.589197
vt 0.720980 0.589197
vt 0.721860 0.622918
vt 0.609391 0.622918
vt 0.222511 0.975796
vt 0.215852 0.976142
vt 0.228884 0.977271
vt 0.229792 0.973072
vt 0.057882 0.964980
vt 0.055379 0.965197
vn 1.000000 0.000000 0.000000
vn 1.000000 0.000000 0.000000
vn 1.000000 0.000000 0.000000
vn 1.000000 0.000000 0.000000
vn 1.000000 0.000000 0.000000
vn 1.000000 0.000000 0.000000
vn 1.000000 0.000000 0.000000
vn 1.000000 0.000000 0.000000
vn 1.000000 0.000000 0.000000
vn 1.000000 0.000000 0.000000
vn 1.000000 0.000000 0.000000
vn 1.000000 0.000000 0.000000
vn -0.035671 0.999351 0.005043
vn -0.035671 0.999351 0.005043
vn -0.035671 0.999351 0.005043
vn -0.035671 0.999351 0.005043
vn -0.069038 0.997613 0.001441
vn -0.069038 0.997613 0.001441
vn -0.069038 0.997613 0.001441
vn -0.069038 0.997613 0.001441
vn -0.115877 0.001701 0.993262
vn -0.120314 0.001757 0.992734
vn -0.120314 0.001757 0.992734
vn -0.115848 0.001700 0.993266
vn -1.000000 0.000000 0.000000
vn -1.000000 0.000000 0.000000
vn -1.000000 0.000000 0.000000
vn -1.000000 0.000000 0.000000
vn -0.999887 0.009321 0.011795
vn -0.999887 0.009321 0.011795
vn -0.996916 0.012372 -0.077490
vn -0.999945 0.009578 0.004352
vn 1.000000 0.000000 0.000000
vn 1.000000 0.000000 0.000000
vn 1.000000 -0.000000 0.000000
vn 1.000000 -0.000000 0.000000
vn 1.000000 -0.000000 0.000000
vn 1.000000 -0.000000 0.000000
vn -1.000000 0.000000 0.000000
vn -1.000000 0.000000 0.000000
vn -0.995329 0.012984 -0.095663
vn -0.995329 0.012984 -0.095663
vn -0.110988 0.001639 0.993820
vn -0.110988 0.001639 0.993820
s 1
g group31 group32 group29 polySurface227
usemtl lambert5SG
f 64/64/73 65/65/74 58/66/75 50/67/76
f 66/68/77 67/69/78 48/70/79 57/71/80
f 68/72/81 69/73/82 49/74/83 62/75/84
f 69/73/82 64/64/73 50/67/76 49/74/83
s off
f 46/76/85 70/77/86 71/78/87 53/79/88
f 51/80/89 46/81/90 53/82/91 54/83/92
s 3
f 61/84/93 51/85/94 54/86/95 60/87/96
s 4
f 53/88/97 71/89/98 72/90/99 59/91/100
s 5
f 54/92/101 53/93/102 59/94/103 60/95/104
s 1
f 73/96/105 66/68/77 57/71/80 47/97/106
f 63/98/107 74/99/108 70/100/109 46/101/110
s 4
f 59/91/100 72/90/99 75/102/111 56/103/112
s 5
f 60/95/104 59/94/103 56/104/113 55/105/114
s 3
f 52/106/115 61/84/93 60/87/96 55/107/116
s 1
f 67/69/78 68/72/81 62/75/84 48/70/79
f 58/66/75 65/65/74 74/99/108 63/98/107
g default
v -219.686935 160.430405 -399.697754
v -219.064117 -0.005335 -382.178955
v -219.064117 19.428221 -382.178955
v -219.064117 26.127205 -382.178955
v -219.064117 54.553143 -386.861664
v -219.064102 72.372025 -395.862732
v -219.064117 92.090851 -396.824036
v -224.123566 152.555740 -382.178955
v -224.119537 -3.628517 -382.178619
v -224.121368 46.477348 -382.178772
v -219.064117 -0.005335 -387.135681
v -219.064117 19.428221 -387.135681
v -219.064117 26.127207 -387.135681
v -219.064117 54.434895 -391.627258
v -219.064102 72.208321 -400.260620
v -219.064117 91.769485 -401.182861
v -219.661514 160.109039 -403.939545
v -224.284302 152.555725 -387.664612
v -224.282440 46.477337 -387.664246
v -224.280869 -3.628529 -387.663940
v -219.064133 51.116444 -386.295532
v -219.064117 51.012489 -391.084229
v -219.358643 124.407684 -398.182983
v -219.346619 124.086319 -402.486450
v -219.064117 -0.005335 -503.638458
v -219.064117 19.428223 -503.638458
v -219.064117 26.127205 -503.638458
v -219.064133 48.569141 -503.638428
v -219.064117 51.655518 -503.638397
v -219.064102 68.360641 -503.628326
v -219.064117 84.216187 -503.632568
v -219.064117 116.533012 -503.635376
v -219.064117 152.555740 -503.638458
v -228.062042 152.555466 -516.599731
v -228.068054 46.477062 -516.594849
v -228.073090 -3.628803 -516.590698
vt 0.858957 0.676866
vt 0.859772 0.689947
vt 0.857281 0.690223
vt 0.856053 0.677236
vt 0.847364 0.625404
vt 0.847364 0.641571
vt 0.843668 0.641571
vt 0.843493 0.628446
vt 0.847364 0.646051
vt 0.843813 0.646159
vt 0.850851 0.662692
vt 0.851332 0.664981
vt 0.847677 0.665310
vt 0.847364 0.662884
vt 0.858907 0.711848
vt 0.860924 0.711558
vt 0.862001 0.738362
vt 0.859393 0.736013
vt 0.824642 0.990763
vt 0.824659 0.991026
vt 0.821844 0.990725
vt 0.817827 0.990996
vt 0.831638 0.991180
vt 0.831798 0.991053
vt 0.832046 0.994891
vt 0.831832 0.994705
vt 0.832222 0.997623
vt 0.831959 0.997640
vt 0.949765 0.625533
vt 0.949590 0.641571
vt 0.949511 0.646051
vt 0.949606 0.661058
vt 0.949755 0.663123
vt 0.950263 0.674293
vt 0.950267 0.684896
vt 0.948485 0.706507
vt 0.949134 0.733200
vt 0.821993 0.997244
vt 0.821795 0.997979
vt 0.837889 0.990666
vt 0.838168 0.994488
vt 0.838435 0.997139
vn 1.000000 0.000000 -0.000000
vn 0.999995 0.002973 0.000682
vn 0.999984 0.005625 0.000454
vn 1.000000 0.000000 -0.000000
vn 1.000000 0.000000 0.000000
vn 1.000000 0.000000 0.000000
vn 1.000000 0.000000 0.000000
vn 1.000000 0.000000 0.000000
vn 1.000000 -0.000001 0.000000
vn 1.000000 0.000000 0.000001
vn 1.000000 -0.000001 -0.000000
vn 1.000000 0.000000 0.000000
vn 1.000000 0.000000 0.000000
vn 1.000000 0.000000 0.000002
vn 0.999957 0.009022 0.002312
vn 0.999986 0.004612 0.002640
vn 0.999981 0.004650 0.004031
vn 0.999952 0.009079 0.003699
vn -0.866527 0.499111 -0.004435
vn -0.866527 0.499111 -0.004435
vn -0.866527 0.499111 -0.004435
vn -0.866527 0.499111 -0.004435
vn -0.999570 -0.000019 0.029320
vn -0.999570 0.000019 0.029318
vn -0.999570 0.000023 0.029336
vn -0.999570 -0.000024 0.029337
vn -0.999569 0.000033 0.029375
vn -0.999568 -0.000034 0.029375
vn 1.000000 0.000000 0.000000
vn 1.000000 0.000000 0.000000
vn 1.000000 -0.000001 -0.000000
vn 1.000000 -0.000001 -0.000000
vn 1.000000 0.000000 0.000000
vn 1.000000 0.000000 -0.000000
vn 0.999996 0.002731 0.000660
vn 0.999987 0.004422 0.002554
vn 0.999982 0.004453 0.004046
vn -0.488954 0.872032 -0.022009
vn -0.488954 0.872032 -0.022009
vn -0.488954 0.872032 -0.022009
vn -0.488954 0.872032 -0.022009
vn -0.999570 0.000020 0.029318
vn -0.999570 0.000025 0.029336
vn -0.999569 0.000036 0.029375
s 1
g group31 group32 group29 polySurface224
usemtl lambert5SG
f 90/108/117 91/109/118 82/110/119 81/111/120
f 86/112/121 87/113/122 78/114/123 77/115/124
f 87/113/122 88/116/125 79/117/126 78/114/123
f 97/118/127 89/119/128 80/120/129 96/121/130
f 89/119/128 90/108/117 81/111/120 80/120/129
f 98/122/131 99/123/132 92/124/133 76/125/134
s off
f 76/126/135 92/127/136 93/128/137 83/129/138
s 4
f 83/130/139 93/131/140 94/132/141 85/133/142
f 85/133/142 94/132/141 95/134/143 84/135/144
s 1
f 100/136/145 101/137/146 87/113/122 86/112/121
f 101/137/146 102/138/147 88/116/125 87/113/122
f 103/139/148 104/140/149 89/119/128 97/118/127
f 104/140/149 105/141/150 90/108/117 89/119/128
f 105/141/150 106/142/151 91/109/118 90/108/117
f 92/124/133 99/123/132 107/143/152 108/144/153
s off
f 93/128/154 92/127/155 108/145/156 109/146/157
s 4
f 94/132/141 93/131/140 109/147/158 110/148/159
f 95/134/143 94/132/141 110/148/159 111/149/160
s 1
f 88/116/125 97/118/127 96/121/130 79/117/126
f 102/138/147 103/139/148 97/118/127 88/116/125
f 82/110/119 91/109/118 99/123/132 98/122/131
f 107/143/152 99/123/132 91/109/118 106/142/151
